<svg width="20" height="20" viewBox="0 0 20 20" fill="none" xmlns="http://www.w3.org/2000/svg">
<path d="M5.52922 12.5C2.32922 12.5 1.86255 15.8333 2.02922 17.5H17.5C17.5 14.3 15.5 12.8333 14.5 12.5L11 12L9.5293 14.5L8.0293 12L5.52922 12.5Z" fill="#172947"/>
<path d="M5.59961 15.4004V12.4004" stroke="white"/>
<path d="M13.5 15V12" stroke="white"/>
<path d="M12.9707 17H12V16.5C12 15.6716 12.6716 15 13.5 15V15C14.3284 15 15 15.6716 15 16.5V17H13.9707" stroke="white"/>
<path d="M8 10V14M11 10V14" stroke="#172947"/>
<path d="M13.1284 4.98775C10.3284 1.38775 7.29507 3.48775 6.12841 4.98775C5.32841 10.1881 8.46174 11.1543 10.1284 10.9873C12.9284 10.5873 13.2951 6.82093 13.1284 4.98775Z" fill="#172947"/>
<path d="M6 8L7.5 6.4873C8.33333 6.82064 10.3 7.2873 11.5 6.4873L13 8" stroke="white"/>
<circle cx="5.5293" cy="16" r="0.5" stroke="white"/>
</svg>
