<svg width="20" height="20" viewBox="0 0 20 20" fill="none" xmlns="http://www.w3.org/2000/svg">
<path d="M17.9758 17.3829L16.9191 14.2126C16.59 13.2255 15.7547 12.4722 14.739 12.2464L11.975 11.6322V10.4458C13.1739 9.75839 13.9833 8.46571 13.9833 6.98749V5.04928C13.9833 4.57956 13.8281 4.1139 13.5463 3.73809L13.5442 3.73534C13.1875 3.26047 12.0742 2 10.0003 2C7.92631 2 6.81312 3.25962 6.45578 3.73534L6.45372 3.73809C6.17187 4.1139 6.01665 4.57956 6.01665 5.04928V6.98749C6.01665 8.46571 6.82609 9.75839 8.025 10.4458V11.6322L5.26097 12.2464C4.24531 12.4722 3.40997 13.2255 3.08093 14.2126L2.02418 17.3829C1.94231 17.6285 2.07506 17.8939 2.32065 17.9758C2.56631 18.0576 2.83172 17.9249 2.91359 17.6793L3.97034 14.509C4.19581 13.8326 4.76831 13.3163 5.46437 13.1616L6.01669 13.0389V15.1311C5.43372 15.3274 5.01253 15.8788 5.01253 16.5271C5.01253 17.3392 5.67328 18 6.48544 18C7.29759 18 7.95834 17.3392 7.95834 16.5271C7.95834 15.8788 7.53715 15.3274 6.95419 15.1311V12.8306L8.26444 12.5394L9.59806 14.7599C9.68278 14.9011 9.83534 14.9875 10 14.9875C10.1647 14.9875 10.3172 14.9011 10.4019 14.7599L11.7344 12.5392L13.0458 12.8306V14.106C12.5796 14.2189 11.5396 14.7472 11.5396 16.025V17.5312C11.5396 17.7901 11.7494 18 12.0083 18H12.5104C12.7693 18 12.9792 17.7901 12.9792 17.5312C12.9792 17.2723 12.7693 17.0625 12.5104 17.0625H12.4771V16.025C12.4771 15.4518 12.9409 14.9875 13.5146 14.9875C14.0867 14.9875 14.5521 15.4529 14.5521 16.025V17.0625H14.5188C14.2599 17.0625 14.05 17.2723 14.05 17.5312C14.05 17.7901 14.2599 18 14.5188 18H15.0208C15.2797 18 15.4896 17.7901 15.4896 17.5312V16.025C15.4896 15.0975 14.8468 14.3177 13.9833 14.1066V13.0389L14.5356 13.1616C15.2317 13.3163 15.8042 13.8326 16.0297 14.509L17.0864 17.6793C17.1683 17.9249 17.4337 18.0576 17.6793 17.9758C17.9249 17.8939 18.0577 17.6285 17.9758 17.3829ZM7.02081 16.527C7.02081 16.8223 6.78062 17.0625 6.4854 17.0625C6.19019 17.0625 5.95 16.8223 5.95 16.527C5.95 16.2318 6.19019 15.9916 6.4854 15.9916C6.78062 15.9916 7.02081 16.2318 7.02081 16.527ZM6.95415 5.04928C6.95415 4.7819 7.04222 4.51687 7.20222 4.30259C7.20278 4.30187 7.20331 4.30115 7.20384 4.30043C7.48803 3.92153 8.355 2.9375 10.0046 2.9375C11.6471 2.9375 12.5167 3.92775 12.7962 4.30043C12.7967 4.30115 12.7973 4.30187 12.7978 4.30259C12.9578 4.51684 13.0458 4.7819 13.0458 5.04928V5.85584L12.4005 5.21056C12.3032 5.11318 12.2024 5.01249 12.0083 5.01249C11.9355 5.01249 11.8638 5.02943 11.7987 5.06199C10.6724 5.62512 9.32762 5.62512 8.20131 5.06199C8.02084 4.97168 7.80287 5.00709 7.66025 5.14981L6.95419 5.85515L6.95415 5.04928ZM6.95415 6.98749V6.8879C7.2234 6.81015 7.47025 6.66555 7.67397 6.4619C7.81325 6.32259 7.96916 6.16671 8.09316 6.04271C9.30866 6.54749 10.6913 6.54755 11.9068 6.04271L12.3261 6.46193C12.5298 6.66558 12.7766 6.81015 13.0458 6.8879V6.98749C13.0458 8.66696 11.6795 10.0333 10 10.0333C8.32053 10.0333 6.95415 8.66696 6.95415 6.98749ZM11.0375 11.8785L10 13.6076L8.9625 11.8784V10.8335C9.29344 10.9228 9.64122 10.9708 10 10.9708C10.3588 10.9708 10.7066 10.9228 11.0375 10.8335V11.8785Z" fill="white"/>
</svg>
